#include <stdint.h>
const uint8_t midifile[] = {
0x4d,0x54,0x68,0x64,0x00,0x00,0x00,0x06,0x00,0x01,0x00,0x02,0x01,0x80,0x4d,0x54,
0x72,0x6b,0x00,0x00,0x00,0x13,0x00,0xff,0x58,0x04,0x04,0x02,0x18,0x08,0x00,0xff,
0x51,0x03,0x07,0xa1,0x20,0x00,0xff,0x2f,0x00,0x4d,0x54,0x72,0x6b,0x00,0x00,0x01,
0xc0,0x00,0xff,0x03,0x15,0x45,0x6c,0x65,0x63,0x2e,0x20,0x50,0x69,0x61,0x6e,0x6f,
0x20,0x28,0x43,0x6c,0x61,0x73,0x73,0x69,0x63,0x29,0x00,0xc0,0x00,0x60,0x90,0x3e,
0x32,0x28,0x90,0x4e,0x32,0x60,0x80,0x4e,0x00,0x38,0x80,0x3e,0x00,0x42,0x90,0x4a,
0x32,0x60,0x80,0x4a,0x00,0x4b,0x90,0x39,0x32,0x1b,0x90,0x45,0x32,0x60,0x80,0x45,
0x00,0x45,0x80,0x39,0x00,0x29,0x90,0x4a,0x32,0x60,0x80,0x4a,0x00,0x5b,0x90,0x4e,
0x32,0x18,0x90,0x3e,0x32,0x48,0x80,0x4e,0x00,0x73,0x90,0x4a,0x32,0x05,0x80,0x3e,
0x00,0x5b,0x80,0x4a,0x00,0x6a,0x90,0x45,0x32,0x10,0x90,0x39,0x32,0x50,0x80,0x45,
0x00,0x10,0x80,0x39,0x00,0x4b,0x90,0x4a,0x32,0x1a,0x90,0x3e,0x32,0x46,0x80,0x4a,
0x00,0x1a,0x80,0x3e,0x00,0x6c,0x90,0x40,0x32,0x04,0x90,0x4f,0x32,0x5c,0x80,0x40,
0x00,0x04,0x80,0x4f,0x00,0x50,0x90,0x40,0x32,0x16,0x90,0x4f,0x32,0x4a,0x80,0x40,
0x00,0x16,0x80,0x4f,0x00,0x6a,0x90,0x39,0x32,0x00,0x90,0x4e,0x32,0x60,0x80,0x4e,
0x00,0x00,0x80,0x39,0x00,0x48,0x90,0x4e,0x32,0x15,0x90,0x40,0x32,0x60,0x80,0x40,
0x00,0x4b,0x80,0x4e,0x00,0x13,0x90,0x4c,0x32,0x02,0x90,0x40,0x32,0x60,0x80,0x40,
0x00,0x5e,0x80,0x4c,0x00,0x09,0x90,0x40,0x32,0x60,0x80,0x40,0x00,0x63,0x90,0x39,
0x32,0x60,0x80,0x39,0x00,0x63,0x90,0x40,0x32,0x60,0x80,0x40,0x00,0x72,0x90,0x40,
0x32,0x18,0x90,0x4f,0x32,0x48,0x80,0x40,0x00,0x18,0x80,0x4f,0x00,0x46,0x90,0x40,
0x32,0x1d,0x90,0x4f,0x32,0x43,0x80,0x40,0x00,0x1d,0x80,0x4f,0x00,0x38,0x90,0x39,
0x32,0x2b,0x90,0x4e,0x32,0x35,0x80,0x39,0x00,0x2b,0x80,0x4e,0x00,0x4a,0x90,0x40,
0x32,0x1f,0x90,0x4e,0x32,0x41,0x80,0x40,0x00,0x1f,0x80,0x4e,0x00,0x4d,0x90,0x40,
0x32,0x35,0x90,0x4c,0x32,0x2b,0x80,0x40,0x00,0x35,0x80,0x4c,0x00,0x3a,0x90,0x40,
0x32,0x36,0x90,0x4c,0x32,0x2a,0x80,0x40,0x00,0x36,0x80,0x4c,0x00,0x39,0x90,0x39,
0x32,0x3a,0x90,0x53,0x32,0x26,0x80,0x39,0x00,0x3a,0x80,0x53,0x00,0x50,0x90,0x53,
0x32,0x03,0x90,0x40,0x32,0x5d,0x80,0x53,0x00,0x03,0x80,0x40,0x00,0x6a,0x90,0x40,
0x32,0x18,0x90,0x51,0x32,0x48,0x80,0x40,0x00,0x18,0x80,0x51,0x00,0x45,0x90,0x40,
0x32,0x16,0x90,0x4f,0x32,0x4a,0x80,0x40,0x00,0x16,0x80,0x4f,0x00,0x4c,0x90,0x39,
0x32,0x19,0x90,0x4e,0x32,0x47,0x80,0x39,0x00,0x19,0x80,0x4e,0x00,0x39,0x90,0x40,
0x32,0x44,0x90,0x4c,0x32,0x1c,0x80,0x40,0x00,0x44,0x80,0x4c,0x00,0x35,0x90,0x3e,
0x32,0x32,0x90,0x4a,0x32,0x60,0x80,0x4a,0x00,0x2e,0x80,0x3e,0x00,0x00,0xff,0x2f,
0x00,
};
