#include <stdint.h>
const uint8_t splat_array[] = {
0x4d,0x54,0x68,0x64,0x00,0x00,0x00,0x06,0x00,0x01,0x00,0x02,0x01,0xe0,0x4d,0x54,
0x72,0x6b,0x00,0x00,0x00,0x17,0x00,0xff,0x03,0x00,0x00,0xff,0x58,0x04,0x04,0x02,
0x18,0x08,0x00,0xff,0x51,0x03,0x07,0xa1,0x20,0x00,0xff,0x2f,0x00,0x4d,0x54,0x72,
0x6b,0x00,0x00,0x00,0x5c,0x00,0xb0,0x79,0x00,0x00,0xff,0x03,0x00,0x00,0xb0,0x0a,
0x40,0x00,0xb0,0x07,0x64,0x00,0xb0,0x0b,0x7f,0x00,0xb0,0x65,0x00,0x00,0xb0,0x64,
0x02,0x00,0xb0,0x06,0x40,0x00,0xb0,0x65,0x00,0x00,0xb0,0x64,0x01,0x00,0xb0,0x06,
0x40,0x00,0xb0,0x26,0x00,0x00,0xb0,0x65,0x00,0x00,0xb0,0x64,0x00,0x00,0xb0,0x06,
0x0c,0x00,0xe0,0x00,0x40,0x00,0xb0,0x01,0x00,0x00,0xc0,0x73,0x00,0x90,0x40,0x7f,
0x00,0x90,0x3b,0x7f,0x83,0x60,0x80,0x40,0x00,0x00,0x80,0x3b,0x00,0x00,0xff,0x2f,
0x00,
};
