#include <stdint.h>
const uint8_t victory_array[] = {
0x4d,0x54,0x68,0x64,0x00,0x00,0x00,0x06,0x00,0x01,0x00,0x02,0x01,0xe0,0x4d,0x54,
0x72,0x6b,0x00,0x00,0x00,0x17,0x00,0xff,0x03,0x00,0x00,0xff,0x58,0x04,0x04,0x02,
0x18,0x08,0x00,0xff,0x51,0x03,0x06,0x1a,0x80,0x00,0xff,0x2f,0x00,0x4d,0x54,0x72,
0x6b,0x00,0x00,0x00,0x66,0x00,0xb0,0x79,0x00,0x00,0xff,0x03,0x00,0x00,0xb0,0x0a,
0x40,0x00,0xb0,0x07,0x64,0x00,0xb0,0x0b,0x7f,0x00,0xb0,0x65,0x00,0x00,0xb0,0x64,
0x02,0x00,0xb0,0x06,0x40,0x00,0xb0,0x65,0x00,0x00,0xb0,0x64,0x01,0x00,0xb0,0x06,
0x40,0x00,0xb0,0x26,0x00,0x00,0xb0,0x65,0x00,0x00,0xb0,0x64,0x00,0x00,0xb0,0x06,
0x0c,0x00,0xe0,0x00,0x40,0x00,0xb0,0x01,0x00,0x00,0xc0,0x38,0x00,0x90,0x48,0x7f,
0x78,0x80,0x48,0x00,0x81,0x70,0x90,0x47,0x7f,0x78,0x80,0x47,0x00,0x00,0x90,0x48,
0x7f,0x83,0x60,0x80,0x48,0x00,0x98,0x76,0xff,0x2f,0x00,
};
